<svg xmlns="http://www.w3.org/2000/svg" viewBox="0 0 1024 1024" fill="var(--logo-fill, #EAE9E4)" fill-rule="evenodd" role="img" aria-label="Mental Game logo">
  <g id="brain">
    <path id="brain-1" d="M 256,157 C 236,160 215,168 198,180 C 190,186 181,197 179,203 C 177,206 175,209 171,213 C 163,221 159,227 156,236 C 153,246 152,256 154,264 C 155,267 156,272 156,274 C 156,283 165,296 177,302 C 184,305 184,305 204,306 C 224,306 224,306 229,310 C 238,316 241,317 252,317 C 263,317 268,316 275,310 C 281,305 282,301 281,274 C 281,252 280,251 278,246 C 274,239 269,234 264,231 C 258,228 246,228 243,230 C 231,240 230,240 227,237 C 224,234 225,230 230,225 C 235,219 242,217 252,217 C 260,217 261,217 268,220 C 276,224 276,224 278,222 C 280,219 280,218 281,199 C 283,164 283,160 279,158 C 276,156 267,156 256,157 M 267,177 C 271,180 269,183 262,185 C 258,187 255,188 252,192 C 247,197 247,197 242,197 C 231,195 227,195 222,198 C 217,202 215,205 214,214 C 213,222 209,226 203,226 C 191,226 179,242 180,256 C 181,264 185,269 195,273 C 203,278 205,280 202,284 C 199,288 183,283 176,276 C 168,266 166,250 172,238 C 177,227 188,218 199,215 C 201,215 202,213 204,207 C 208,194 211,190 219,186 C 224,184 237,183 239,185 C 240,187 243,186 246,182 C 253,176 262,173 267,177 M 258,254 C 258,255 257,258 256,261 C 254,265 253,269 253,271 C 253,277 257,285 262,289 C 264,290 265,292 265,294 C 265,302 254,300 249,291 C 241,277 232,271 221,271 C 217,271 214,270 213,270 C 211,268 212,264 215,261 C 217,259 217,259 224,260 C 241,261 242,261 246,256 C 250,251 251,251 254,251 C 257,251 258,252 258,254"/>
    <path id="brain-2" d="M 298,161 C 296,163 296,163 296,187 C 297,201 298,212 298,213 C 299,213 301,214 303,214 C 311,214 311,219 304,225 C 297,230 295,235 295,247 C 295,261 298,264 308,262 C 317,259 325,260 325,265 C 325,267 323,269 314,273 C 302,280 295,288 295,298 C 295,307 297,308 308,308 C 322,307 329,308 337,314 C 346,320 352,329 354,336 C 361,356 389,339 389,315 C 389,307 388,305 382,299 C 380,296 378,294 378,293 C 378,291 382,289 384,289 C 389,289 397,299 397,305 C 397,306 398,307 398,308 C 400,309 403,306 407,299 C 411,289 411,267 406,261 C 405,260 405,260 403,262 C 400,266 395,266 393,263 C 390,260 391,258 396,254 C 402,250 403,245 403,236 C 402,226 395,215 388,212 C 385,211 384,211 381,215 C 376,220 372,220 369,217 C 367,213 368,211 372,208 C 374,207 375,204 376,202 C 379,194 373,185 361,177 C 352,171 349,172 353,178 C 354,181 354,187 353,189 C 347,193 344,190 343,181 C 342,175 342,173 339,171 C 333,164 316,158 306,158 C 302,158 300,159 298,161 M 322,188 C 325,190 331,196 335,202 C 337,206 337,208 338,216 C 338,228 339,229 345,230 C 351,231 363,238 367,242 C 372,248 374,253 374,262 C 374,282 364,293 343,293 C 327,294 328,285 345,282 C 348,282 353,280 355,279 C 365,274 367,257 359,248 C 353,242 349,241 336,240 C 325,239 325,239 325,236 C 325,234 325,230 326,228 C 329,215 327,208 319,201 C 312,195 311,192 312,189 C 313,187 318,186 322,188"/>
  </g>
  <g id="lacing">
    <path id="lacing-path" d="M 211,324 C 207,327 208,330 215,337 C 221,344 221,344 219,347 C 218,349 216,351 214,352 C 210,353 210,354 213,357 C 215,358 215,358 220,353 C 227,347 225,347 235,355 C 242,359 244,359 250,353 C 253,350 256,348 257,348 C 257,348 261,351 265,354 C 269,357 272,360 273,360 C 273,360 276,357 280,353 C 284,350 287,347 287,347 C 288,347 292,350 296,354 L 303,361 L 310,355 C 318,348 318,348 321,353 C 323,355 325,358 326,359 C 327,360 327,360 331,357 C 337,353 339,351 337,349 C 337,348 335,349 333,351 C 328,355 328,355 324,350 C 320,344 320,343 327,336 C 330,333 332,330 332,329 C 332,326 329,327 323,333 C 316,340 318,340 308,331 C 302,326 302,326 293,335 L 287,340 L 280,333 L 272,326 L 264,333 C 255,342 257,343 246,332 C 239,326 240,326 231,335 C 225,341 225,341 223,340 C 220,337 217,331 215,327 C 214,323 213,322 211,324 M 309,336 C 312,339 314,342 314,343 C 314,345 304,355 303,355 C 301,355 291,345 291,344 C 291,342 302,331 303,331 C 303,331 306,333 309,336 M 248,338 L 253,344 L 247,350 L 241,356 L 236,351 C 232,348 230,345 230,345 C 230,344 240,332 241,332 C 241,332 244,335 248,338 M 279,338 L 284,343 L 278,349 C 275,352 272,355 272,355 C 271,355 268,353 265,350 L 260,345 L 266,338 C 269,335 272,332 272,332 C 273,332 276,334 279,338"/>
  </g>
  <g id="torch-head">
    <path id="torch-head-1" d="M 210,373 C 208,374 209,379 210,382 C 211,384 214,386 216,388 C 219,390 219,390 282,390 C 344,390 345,390 348,388 C 354,384 356,378 353,375 C 352,373 351,373 281,373 C 242,372 210,372 210,373"/>
    <path id="torch-head-2" d="M 226,406 C 226,407 232,433 233,436 C 234,438 237,438 282,438 C 331,437 331,437 332,433 C 332,432 332,431 332,430 C 334,425 338,407 337,406 C 336,404 227,404 226,406"/>
  </g>
  <g id="torch-body">
    <path id="torch-body-path" d="M 234,451 C 234,453 238,496 249,619 C 252,655 252,655 260,655 C 281,655 305,655 306,654 C 310,652 311,649 312,631 C 313,622 315,608 316,600 C 316,593 318,578 319,568 C 321,539 323,518 325,496 C 326,485 327,471 328,465 C 328,460 328,454 329,454 C 329,453 329,452 328,452 C 328,452 307,451 281,450 C 241,450 235,450 234,451 M 287,481 C 290,483 290,483 290,504 C 290,524 290,524 287,527 C 282,530 277,530 275,525 C 272,521 272,485 274,482 C 278,477 282,476 287,481 M 299,639 C 299,640 298,640 297,639 C 297,638 296,637 297,637 C 297,636 298,636 299,637 C 299,638 300,639 299,639"/>
  </g>
  <g id="torch-stem">
    <path id="torch-stem-path" d="M 269,675 C 269,679 270,683 272,686 C 274,691 274,691 274,775 C 275,867 274,862 280,862 C 287,862 287,867 287,775 C 288,694 288,692 290,688 C 292,682 295,671 295,670 C 295,669 289,669 282,668 C 269,668 269,668 269,675"/>
  </g>
  <g id="word-mental">
    <path id="word-mental-1" d="M 583,278 C 575,281 568,290 547,325 C 534,347 511,388 511,390 C 510,393 509,392 508,389 C 507,380 521,312 526,296 C 529,290 528,290 520,290 C 511,291 506,293 501,299 C 497,303 481,335 473,352 C 453,400 436,427 419,436 C 405,442 398,438 398,423 C 397,417 396,417 391,422 C 380,431 379,445 389,454 C 399,464 416,463 431,451 C 444,440 465,407 479,373 C 482,367 485,360 486,358 C 488,356 490,351 492,347 C 499,333 499,344 493,376 C 490,389 488,402 487,406 C 486,416 485,422 483,432 C 482,439 482,439 484,441 C 485,443 487,443 491,443 C 497,442 499,440 507,423 C 519,401 544,356 552,342 C 556,337 558,334 558,335 C 559,336 557,346 552,361 C 550,367 546,380 543,391 C 538,409 538,411 538,422 C 538,432 538,434 540,437 C 547,449 560,447 574,433 C 584,423 584,419 573,424 C 567,427 563,428 561,425 C 559,423 559,414 561,407 C 571,360 586,313 596,292 C 599,287 601,282 601,282 C 601,277 590,274 583,278"/>
    <path id="word-mental-2" d="M 944,264 C 929,271 908,307 896,347 C 892,361 888,378 888,383 C 888,385 886,388 881,393 C 870,405 861,408 861,398 C 861,393 875,356 881,343 C 884,337 884,335 879,335 C 872,335 866,337 864,340 C 863,343 863,343 859,340 C 855,335 847,335 838,339 C 824,346 806,370 801,388 C 799,393 798,395 792,400 C 780,412 772,414 772,404 C 772,397 789,350 792,346 C 793,346 796,345 799,344 C 806,343 811,340 813,336 C 815,332 813,330 805,330 C 802,330 800,330 799,329 C 799,328 801,323 803,317 C 805,311 807,305 807,303 C 807,301 806,301 799,301 C 793,301 790,302 789,303 C 788,303 785,310 782,318 C 777,331 777,331 772,332 C 762,332 760,333 758,336 C 754,342 756,347 764,348 C 766,348 768,349 769,350 C 769,351 759,378 754,388 C 745,407 728,419 723,412 C 721,408 723,400 734,374 C 740,361 741,352 737,347 C 729,339 715,342 702,355 C 695,361 694,362 695,357 C 698,348 696,346 686,347 C 680,347 679,348 677,349 C 677,351 673,361 669,372 C 662,396 660,400 648,411 C 632,427 613,431 607,420 C 606,416 606,411 608,410 C 609,410 614,408 620,406 C 639,400 650,389 655,373 C 660,353 645,343 624,353 C 601,364 579,406 585,425 C 591,445 624,445 648,424 C 653,419 654,420 652,425 C 651,430 651,432 652,434 C 654,436 666,434 669,432 C 670,431 673,423 677,411 C 684,390 690,379 698,370 C 704,364 710,360 714,360 C 717,360 717,361 717,365 C 717,369 716,373 710,385 C 704,398 702,408 702,417 C 702,425 702,425 705,429 C 714,436 727,433 741,419 C 745,415 749,411 749,412 C 750,412 750,414 750,417 C 751,422 756,427 761,428 C 770,429 779,425 790,415 L 797,409 L 799,414 C 803,422 808,425 817,423 C 824,422 830,417 837,410 C 842,405 843,405 843,409 C 843,417 850,422 858,420 C 866,418 870,416 879,407 C 887,399 888,399 889,406 C 893,420 911,421 928,408 C 933,404 941,394 944,389 C 945,388 947,384 948,382 C 951,377 951,374 948,373 C 945,373 946,372 936,386 C 926,399 916,406 911,401 C 908,399 906,394 906,388 C 906,381 907,378 916,369 C 936,349 949,327 957,302 C 964,281 965,269 961,264 C 958,262 948,262 944,264 M 951,280 C 956,285 942,320 926,345 C 920,354 912,364 911,363 C 908,361 922,324 933,302 C 942,283 947,277 951,280 M 855,350 C 858,353 858,358 854,368 C 843,399 823,419 818,403 C 815,393 826,368 839,355 C 846,348 851,346 855,350 M 640,363 C 645,368 634,387 623,394 C 618,397 610,399 610,398 C 608,395 622,372 629,366 C 633,362 637,361 640,363"/>
  </g>
  <g id="word-game">
    <path id="word-game-1" d="M 497,464 C 484,468 473,475 459,489 C 429,517 413,553 415,585 C 416,601 420,609 430,615 C 445,625 469,619 486,604 C 490,600 493,597 493,598 C 494,599 489,613 483,624 C 474,642 464,649 450,649 C 444,649 443,649 441,652 C 435,659 441,666 453,666 C 474,666 496,645 508,614 C 511,605 525,568 526,565 C 526,563 528,559 530,555 C 531,551 533,548 533,547 C 533,543 520,544 496,550 C 487,552 481,558 485,562 C 487,563 489,563 494,563 C 498,562 501,562 502,562 C 504,564 491,583 483,591 C 466,608 448,607 443,589 C 438,573 446,542 459,519 C 476,491 499,472 510,479 C 519,485 515,505 503,517 C 497,523 497,524 500,526 C 502,528 510,528 516,525 C 531,519 541,497 536,479 C 534,474 530,469 524,466 C 519,463 504,462 497,464"/>
    <path id="word-game-2" d="M 822,499 C 807,504 791,520 781,541 C 778,546 776,553 775,556 C 772,568 753,582 749,575 C 747,572 748,567 757,547 C 765,526 766,519 764,513 C 758,502 743,504 727,519 C 719,526 719,526 718,523 C 714,513 711,511 702,512 C 693,512 687,515 678,523 C 675,526 672,528 672,527 C 672,527 672,524 672,521 C 672,516 672,516 663,517 C 654,517 653,517 650,524 C 641,554 634,570 630,576 C 618,591 603,597 603,587 C 603,582 615,549 625,529 C 629,520 629,519 622,519 C 615,519 609,521 607,524 C 605,527 605,527 601,524 C 598,521 597,520 591,520 C 581,520 574,524 563,535 C 551,546 543,560 537,577 C 534,586 534,603 537,607 C 545,618 560,616 575,601 C 579,597 582,595 582,595 C 583,596 583,598 584,601 C 584,603 586,606 588,607 C 594,613 609,609 620,598 C 625,593 628,592 626,596 C 625,598 625,604 626,605 C 628,607 642,605 644,603 C 645,602 649,593 652,583 C 661,556 666,546 677,537 C 683,531 690,528 693,530 C 696,532 696,535 685,563 C 673,595 672,598 674,600 C 675,602 676,602 683,601 C 688,601 692,600 693,599 C 693,598 696,590 700,580 C 707,558 711,549 719,538 C 727,529 733,525 738,525 C 744,524 743,527 735,547 C 727,567 725,574 725,582 C 725,593 729,598 740,597 C 750,596 758,591 768,581 C 773,576 773,576 775,580 C 782,594 804,596 828,582 C 845,573 867,542 858,541 C 857,541 855,542 852,546 C 841,562 826,573 813,576 C 803,578 796,574 796,566 C 796,562 796,562 805,559 C 817,555 822,552 829,546 C 848,532 855,506 843,499 C 839,496 830,496 822,499 M 832,513 C 836,519 825,536 813,544 C 807,548 800,550 799,549 C 797,547 809,526 817,518 C 824,510 829,508 832,513 M 597,534 C 600,538 600,541 596,551 C 590,570 576,592 568,596 C 563,599 561,599 558,596 C 551,588 563,555 581,539 C 586,534 588,533 593,532 C 594,532 595,533 597,534"/>
  </g>
  <g id="underline">
    <path id="underline-path" d="M 823,624 C 800,627 745,633 676,640 C 661,642 643,644 636,644 C 628,645 616,647 609,648 C 596,649 594,649 592,652 C 589,655 589,655 594,660 C 600,666 599,666 635,661 C 688,654 741,648 749,647 C 754,647 771,645 787,643 C 803,641 825,638 834,637 C 844,636 854,634 856,634 C 861,632 863,628 861,624 C 859,620 855,620 823,624"/>
  </g>
  <g id="figure-left">
    <path id="figure-left-1" d="M 368,657 C 358,660 351,669 351,679 C 351,703 384,710 395,688 C 404,672 387,652 368,657"/>
    <path id="figure-left-2" d="M 351,710 C 347,712 346,714 343,719 C 339,727 338,737 338,768 C 337,802 336,801 377,800 C 403,800 405,800 406,802 C 407,803 410,813 413,825 C 421,853 423,860 425,861 C 426,862 432,863 439,863 C 450,864 452,864 454,863 C 457,860 452,855 444,852 C 441,851 441,851 433,819 C 423,777 425,779 397,779 C 370,779 372,779 372,769 C 372,763 372,762 366,751 C 360,740 359,736 362,736 C 363,736 367,743 372,752 C 374,757 377,762 379,764 C 380,765 381,767 381,768 C 381,768 382,769 383,770 C 385,772 387,772 404,772 C 422,772 424,771 427,769 C 429,768 430,766 430,764 C 430,758 429,758 411,757 C 392,756 395,759 384,735 C 372,709 364,704 351,710"/>
    <path id="figure-left-3" d="M 315,737 C 313,739 314,744 317,764 C 323,808 324,813 323,818 C 323,820 321,831 319,842 C 316,860 316,861 318,863 C 320,864 324,863 326,861 C 326,861 328,852 330,841 C 332,831 334,821 334,820 C 335,818 335,818 361,818 C 386,818 386,818 387,822 C 387,824 389,832 390,840 C 393,864 393,862 398,863 C 401,863 402,863 403,861 C 404,859 397,812 395,810 C 393,809 389,808 364,808 C 348,808 334,808 334,807 C 333,807 332,798 331,787 C 326,754 324,741 322,738 C 321,736 317,735 315,737"/>
  </g>
  <g id="figure-right">
    <path id="figure-right-1" d="M 542,657 C 531,662 526,675 532,687 C 535,693 539,696 546,699 C 569,706 588,676 569,660 C 562,653 551,652 542,657"/>
    <path id="figure-right-2" d="M 558,708 C 553,710 548,715 546,719 C 535,738 530,747 530,747 C 530,748 529,750 527,751 C 524,756 526,756 501,745 C 486,738 485,738 482,739 C 481,741 480,742 480,744 C 480,748 481,750 496,758 C 500,761 506,764 508,766 C 514,770 519,772 525,772 C 531,772 531,772 535,768 C 537,765 543,758 547,751 C 552,745 556,739 557,739 C 560,739 559,744 555,750 C 551,755 551,755 551,766 C 551,775 551,777 549,778 C 548,779 542,779 526,779 C 504,779 504,779 501,782 C 499,784 497,789 491,817 C 483,850 483,850 478,852 C 472,855 469,859 469,862 C 470,863 471,863 482,863 C 500,863 499,864 508,831 C 516,801 516,802 517,801 C 519,800 524,800 553,800 C 580,801 581,801 585,793 C 587,789 587,787 587,759 C 587,721 586,716 575,708 C 571,706 562,705 558,708"/>
    <path id="figure-right-3" d="M 602,739 C 600,741 595,779 592,800 C 592,803 591,806 591,807 C 590,807 576,808 560,808 C 526,809 528,807 526,822 C 525,827 524,838 522,846 C 520,860 520,860 522,862 C 525,864 528,865 530,863 C 530,862 532,852 534,840 C 536,829 537,819 538,819 C 539,818 588,818 589,819 C 590,819 592,829 594,840 C 597,855 599,861 600,862 C 602,863 606,863 608,861 C 609,860 609,858 603,831 C 599,812 599,818 606,775 C 611,744 611,742 609,739 C 607,736 603,736 602,739"/>
  </g>
</svg>